<mxfile host="app.diagrams.net" modified="2023-05-21T19:48:12.225Z" agent="Mozilla/5.0 (Windows NT 10.0; Win64; x64) AppleWebKit/537.36 (KHTML, like Gecko) Chrome/113.0.0.0 Safari/537.36" etag="zNu3-47X4HA6_eHp9VuJ" version="21.2.9" type="github">
  <diagram name="Sayfa -1" id="a71NDQmAMSMrgO2OHP5D">
    <mxGraphModel dx="391" dy="215" grid="1" gridSize="10" guides="1" tooltips="1" connect="1" arrows="1" fold="1" page="1" pageScale="1" pageWidth="827" pageHeight="1169" math="0" shadow="0">
      <root>
        <mxCell id="0" />
        <mxCell id="1" parent="0" />
        <mxCell id="2f1PFpyF19BHjykk83JR-9" value="" style="edgeStyle=orthogonalEdgeStyle;rounded=0;orthogonalLoop=1;jettySize=auto;html=1;" edge="1" parent="1" source="2f1PFpyF19BHjykk83JR-1" target="2f1PFpyF19BHjykk83JR-7">
          <mxGeometry relative="1" as="geometry" />
        </mxCell>
        <mxCell id="2f1PFpyF19BHjykk83JR-24" style="edgeStyle=orthogonalEdgeStyle;rounded=0;orthogonalLoop=1;jettySize=auto;html=1;entryX=1;entryY=0.5;entryDx=0;entryDy=0;" edge="1" parent="1" source="2f1PFpyF19BHjykk83JR-1" target="2f1PFpyF19BHjykk83JR-15">
          <mxGeometry relative="1" as="geometry">
            <Array as="points">
              <mxPoint x="380" y="290" />
            </Array>
          </mxGeometry>
        </mxCell>
        <mxCell id="2f1PFpyF19BHjykk83JR-1" value="&lt;font style=&quot;font-size: 18px;&quot;&gt;z&lt;sup&gt;-1&lt;/sup&gt;&lt;/font&gt;" style="rounded=0;whiteSpace=wrap;html=1;" vertex="1" parent="1">
          <mxGeometry x="350" y="220" width="60" height="50" as="geometry" />
        </mxCell>
        <mxCell id="2f1PFpyF19BHjykk83JR-5" style="edgeStyle=orthogonalEdgeStyle;rounded=0;orthogonalLoop=1;jettySize=auto;html=1;" edge="1" parent="1" source="2f1PFpyF19BHjykk83JR-2">
          <mxGeometry relative="1" as="geometry">
            <mxPoint x="380" y="220" as="targetPoint" />
            <Array as="points">
              <mxPoint x="380" y="180" />
            </Array>
          </mxGeometry>
        </mxCell>
        <mxCell id="2f1PFpyF19BHjykk83JR-2" value="" style="verticalLabelPosition=bottom;verticalAlign=top;html=1;shape=mxgraph.flowchart.or;" vertex="1" parent="1">
          <mxGeometry x="170" y="160" width="40" height="40" as="geometry" />
        </mxCell>
        <mxCell id="2f1PFpyF19BHjykk83JR-4" value="+" style="edgeStyle=orthogonalEdgeStyle;rounded=0;orthogonalLoop=1;jettySize=auto;html=1;labelPosition=center;verticalLabelPosition=middle;align=center;verticalAlign=middle;horizontal=1;fontSize=13;" edge="1" parent="1" source="2f1PFpyF19BHjykk83JR-3" target="2f1PFpyF19BHjykk83JR-2">
          <mxGeometry x="0.6782" y="10" relative="1" as="geometry">
            <mxPoint as="offset" />
          </mxGeometry>
        </mxCell>
        <mxCell id="2f1PFpyF19BHjykk83JR-3" value="&lt;font size=&quot;1&quot; style=&quot;&quot;&gt;&lt;b style=&quot;&quot;&gt;&lt;i style=&quot;font-size: 18px;&quot;&gt;x[k]&lt;/i&gt;&lt;/b&gt;&lt;/font&gt;" style="text;html=1;align=center;verticalAlign=middle;resizable=0;points=[];autosize=1;strokeColor=none;fillColor=none;" vertex="1" parent="1">
          <mxGeometry x="50" y="160" width="60" height="40" as="geometry" />
        </mxCell>
        <mxCell id="2f1PFpyF19BHjykk83JR-6" value="&lt;b style=&quot;border-color: var(--border-color); color: rgb(0, 0, 0); font-family: Helvetica; font-size: x-small; font-style: normal; font-variant-ligatures: normal; font-variant-caps: normal; letter-spacing: normal; orphans: 2; text-align: center; text-indent: 0px; text-transform: none; widows: 2; word-spacing: 0px; -webkit-text-stroke-width: 0px; background-color: rgb(251, 251, 251); text-decoration-thickness: initial; text-decoration-style: initial; text-decoration-color: initial;&quot;&gt;&lt;i style=&quot;border-color: var(--border-color); font-size: 18px;&quot;&gt;h[k]&lt;/i&gt;&lt;/b&gt;" style="text;whiteSpace=wrap;html=1;" vertex="1" parent="1">
          <mxGeometry x="379" y="150" width="61" height="30" as="geometry" />
        </mxCell>
        <mxCell id="2f1PFpyF19BHjykk83JR-10" value="" style="edgeStyle=orthogonalEdgeStyle;rounded=0;orthogonalLoop=1;jettySize=auto;html=1;" edge="1" parent="1" source="2f1PFpyF19BHjykk83JR-7" target="2f1PFpyF19BHjykk83JR-8">
          <mxGeometry relative="1" as="geometry" />
        </mxCell>
        <mxCell id="2f1PFpyF19BHjykk83JR-25" style="edgeStyle=orthogonalEdgeStyle;rounded=0;orthogonalLoop=1;jettySize=auto;html=1;exitX=0.5;exitY=1;exitDx=0;exitDy=0;" edge="1" parent="1" source="2f1PFpyF19BHjykk83JR-7" target="2f1PFpyF19BHjykk83JR-16">
          <mxGeometry relative="1" as="geometry" />
        </mxCell>
        <mxCell id="2f1PFpyF19BHjykk83JR-7" value="&lt;font style=&quot;font-size: 18px;&quot;&gt;z&lt;sup&gt;-1&lt;/sup&gt;&lt;/font&gt;" style="rounded=0;whiteSpace=wrap;html=1;" vertex="1" parent="1">
          <mxGeometry x="350" y="320" width="60" height="50" as="geometry" />
        </mxCell>
        <mxCell id="2f1PFpyF19BHjykk83JR-18" style="edgeStyle=orthogonalEdgeStyle;rounded=0;orthogonalLoop=1;jettySize=auto;html=1;entryX=1;entryY=0.5;entryDx=0;entryDy=0;" edge="1" parent="1" source="2f1PFpyF19BHjykk83JR-8" target="2f1PFpyF19BHjykk83JR-17">
          <mxGeometry relative="1" as="geometry">
            <Array as="points">
              <mxPoint x="380" y="490" />
            </Array>
          </mxGeometry>
        </mxCell>
        <mxCell id="2f1PFpyF19BHjykk83JR-8" value="&lt;font style=&quot;font-size: 18px;&quot;&gt;z&lt;sup&gt;-1&lt;/sup&gt;&lt;/font&gt;" style="rounded=0;whiteSpace=wrap;html=1;" vertex="1" parent="1">
          <mxGeometry x="350" y="420" width="60" height="50" as="geometry" />
        </mxCell>
        <mxCell id="2f1PFpyF19BHjykk83JR-11" value="" style="verticalLabelPosition=bottom;verticalAlign=top;html=1;shape=mxgraph.flowchart.or;" vertex="1" parent="1">
          <mxGeometry x="170" y="270" width="40" height="40" as="geometry" />
        </mxCell>
        <mxCell id="2f1PFpyF19BHjykk83JR-12" value="" style="verticalLabelPosition=bottom;verticalAlign=top;html=1;shape=mxgraph.flowchart.or;" vertex="1" parent="1">
          <mxGeometry x="170" y="370" width="40" height="40" as="geometry" />
        </mxCell>
        <mxCell id="2f1PFpyF19BHjykk83JR-15" value="&lt;span style=&quot;font-size: 18px;&quot;&gt;1.1&lt;/span&gt;" style="rounded=0;whiteSpace=wrap;html=1;" vertex="1" parent="1">
          <mxGeometry x="260" y="270" width="60" height="40" as="geometry" />
        </mxCell>
        <mxCell id="2f1PFpyF19BHjykk83JR-16" value="&lt;span style=&quot;font-size: 18px;&quot;&gt;0.16&lt;/span&gt;" style="rounded=0;whiteSpace=wrap;html=1;" vertex="1" parent="1">
          <mxGeometry x="260" y="370" width="60" height="40" as="geometry" />
        </mxCell>
        <mxCell id="2f1PFpyF19BHjykk83JR-17" value="&lt;span style=&quot;font-size: 18px;&quot;&gt;1.1&lt;/span&gt;" style="rounded=0;whiteSpace=wrap;html=1;" vertex="1" parent="1">
          <mxGeometry x="260" y="470" width="60" height="40" as="geometry" />
        </mxCell>
        <mxCell id="2f1PFpyF19BHjykk83JR-20" value="+" style="edgeStyle=orthogonalEdgeStyle;rounded=0;orthogonalLoop=1;jettySize=auto;html=1;labelPosition=center;verticalLabelPosition=middle;align=center;verticalAlign=middle;horizontal=1;entryX=0.5;entryY=1;entryDx=0;entryDy=0;entryPerimeter=0;exitX=0.5;exitY=0;exitDx=0;exitDy=0;exitPerimeter=0;fontSize=13;" edge="1" parent="1" source="2f1PFpyF19BHjykk83JR-11" target="2f1PFpyF19BHjykk83JR-2">
          <mxGeometry x="0.6782" y="10" relative="1" as="geometry">
            <mxPoint x="120" y="244.66" as="sourcePoint" />
            <mxPoint x="180" y="244.66" as="targetPoint" />
            <mxPoint as="offset" />
          </mxGeometry>
        </mxCell>
        <mxCell id="2f1PFpyF19BHjykk83JR-21" value="+" style="edgeStyle=orthogonalEdgeStyle;rounded=0;orthogonalLoop=1;jettySize=auto;html=1;labelPosition=center;verticalLabelPosition=middle;align=center;verticalAlign=middle;horizontal=1;entryX=0.5;entryY=1;entryDx=0;entryDy=0;entryPerimeter=0;fontSize=13;" edge="1" parent="1" source="2f1PFpyF19BHjykk83JR-12" target="2f1PFpyF19BHjykk83JR-11">
          <mxGeometry x="0.6782" y="10" relative="1" as="geometry">
            <mxPoint x="189.66" y="380" as="sourcePoint" />
            <mxPoint x="189.66" y="310" as="targetPoint" />
            <mxPoint as="offset" />
          </mxGeometry>
        </mxCell>
        <mxCell id="2f1PFpyF19BHjykk83JR-22" value="-" style="edgeStyle=orthogonalEdgeStyle;rounded=0;orthogonalLoop=1;jettySize=auto;html=1;labelPosition=center;verticalLabelPosition=middle;align=center;verticalAlign=middle;horizontal=1;entryX=0.5;entryY=1;entryDx=0;entryDy=0;entryPerimeter=0;exitX=0;exitY=0.5;exitDx=0;exitDy=0;fontSize=13;" edge="1" parent="1" source="2f1PFpyF19BHjykk83JR-17" target="2f1PFpyF19BHjykk83JR-12">
          <mxGeometry x="0.8667" y="10" relative="1" as="geometry">
            <mxPoint x="189.66" y="480" as="sourcePoint" />
            <mxPoint x="189.66" y="410" as="targetPoint" />
            <mxPoint as="offset" />
          </mxGeometry>
        </mxCell>
        <mxCell id="2f1PFpyF19BHjykk83JR-26" value="+" style="edgeStyle=orthogonalEdgeStyle;rounded=0;orthogonalLoop=1;jettySize=auto;html=1;labelPosition=center;verticalLabelPosition=middle;align=center;verticalAlign=middle;horizontal=1;entryX=1;entryY=0.5;entryDx=0;entryDy=0;entryPerimeter=0;exitX=0;exitY=0.5;exitDx=0;exitDy=0;fontSize=13;" edge="1" parent="1" source="2f1PFpyF19BHjykk83JR-15" target="2f1PFpyF19BHjykk83JR-11">
          <mxGeometry x="0.2" y="-10" relative="1" as="geometry">
            <mxPoint x="200" y="280" as="sourcePoint" />
            <mxPoint x="200" y="210" as="targetPoint" />
            <mxPoint as="offset" />
          </mxGeometry>
        </mxCell>
        <mxCell id="2f1PFpyF19BHjykk83JR-27" value="+" style="edgeStyle=orthogonalEdgeStyle;rounded=0;orthogonalLoop=1;jettySize=auto;html=1;labelPosition=center;verticalLabelPosition=middle;align=center;verticalAlign=middle;horizontal=1;entryX=1;entryY=0.5;entryDx=0;entryDy=0;entryPerimeter=0;exitX=0;exitY=0.5;exitDx=0;exitDy=0;fontSize=13;" edge="1" parent="1" source="2f1PFpyF19BHjykk83JR-16" target="2f1PFpyF19BHjykk83JR-12">
          <mxGeometry x="0.2" y="-10" relative="1" as="geometry">
            <mxPoint x="260" y="344.78" as="sourcePoint" />
            <mxPoint x="210" y="344.78" as="targetPoint" />
            <mxPoint as="offset" />
          </mxGeometry>
        </mxCell>
      </root>
    </mxGraphModel>
  </diagram>
</mxfile>
